<?xml version="1.0" ?><!-- Uploaded to: SVG Repo, www.svgrepo.com, Generator: SVG Repo Mixer Tools -->
<svg width="800px" height="800px" viewBox="-0.02 0 60.031 60.031" id="pencil" xmlns="http://www.w3.org/2000/svg"><defs><style>
      .cls-1 {
        fill: #9f4c4c;
      }

      .cls-1, .cls-2 {
        fill-rule: evenodd;
      }

      .cls-2 {
        fill: #65727f;
      }
    </style></defs><path class="cls-1" d="M400.018,116L372.086,144.06a4.029,4.029,0,0,1-1.793,1.04l-7.235,1.974-10.13-10.132,1.974-7.235a4.088,4.088,0,0,1,.4-0.965,4,4,0,0,1,.638-0.828L384.01,99.988Z" data-name="pencil" id="pencil-2" transform="translate(-350 -90)"/><path class="cls-2" d="M408.819,107.324L404.02,112,388.012,95.986l4.663-4.807a4.036,4.036,0,0,1,5.708,0l10.436,10.437A4.029,4.029,0,0,1,408.819,107.324Zm-56.282,42.62a2.016,2.016,0,0,1-2.477-2.479l1.582-5.806,6.7,6.7Z" data-name="pencil" id="pencil-3" transform="translate(-350 -90)"/></svg>